<svg id="visual" viewBox="0 0 960 540" width="960" height="540" xmlns="http://www.w3.org/2000/svg" xmlns:xlink="http://www.w3.org/1999/xlink" version="1.1"><rect x="0" y="0" width="960" height="540" fill="#F7CACA"></rect><path d="M0 327L22.8 331.8C45.7 336.7 91.3 346.3 137 358.5C182.7 370.7 228.3 385.3 274 380.2C319.7 375 365.3 350 411.2 343.3C457 336.7 503 348.3 548.8 351C594.7 353.7 640.3 347.3 686 345.5C731.7 343.7 777.3 346.3 823 354.5C868.7 362.7 914.3 376.3 937.2 383.2L960 390L960 541L937.2 541C914.3 541 868.7 541 823 541C777.3 541 731.7 541 686 541C640.3 541 594.7 541 548.8 541C503 541 457 541 411.2 541C365.3 541 319.7 541 274 541C228.3 541 182.7 541 137 541C91.3 541 45.7 541 22.8 541L0 541Z" fill="#fa7268"></path><path d="M0 385L22.8 383.2C45.7 381.3 91.3 377.7 137 376.8C182.7 376 228.3 378 274 381.7C319.7 385.3 365.3 390.7 411.2 398.7C457 406.7 503 417.3 548.8 415.3C594.7 413.3 640.3 398.7 686 396.2C731.7 393.7 777.3 403.3 823 409.3C868.7 415.3 914.3 417.7 937.2 418.8L960 420L960 541L937.2 541C914.3 541 868.7 541 823 541C777.3 541 731.7 541 686 541C640.3 541 594.7 541 548.8 541C503 541 457 541 411.2 541C365.3 541 319.7 541 274 541C228.3 541 182.7 541 137 541C91.3 541 45.7 541 22.8 541L0 541Z" fill="#ef5f67"></path><path d="M0 455L22.8 448C45.7 441 91.3 427 137 423.5C182.7 420 228.3 427 274 429.3C319.7 431.7 365.3 429.3 411.2 428.8C457 428.3 503 429.7 548.8 426.3C594.7 423 640.3 415 686 411.7C731.7 408.3 777.3 409.7 823 414.8C868.7 420 914.3 429 937.2 433.5L960 438L960 541L937.2 541C914.3 541 868.7 541 823 541C777.3 541 731.7 541 686 541C640.3 541 594.7 541 548.8 541C503 541 457 541 411.2 541C365.3 541 319.7 541 274 541C228.3 541 182.7 541 137 541C91.3 541 45.7 541 22.8 541L0 541Z" fill="#e34c67"></path><path d="M0 459L22.8 459.7C45.7 460.3 91.3 461.7 137 459.3C182.7 457 228.3 451 274 445.8C319.7 440.7 365.3 436.3 411.2 435.2C457 434 503 436 548.8 442C594.7 448 640.3 458 686 459.3C731.7 460.7 777.3 453.3 823 453.2C868.7 453 914.3 460 937.2 463.5L960 467L960 541L937.2 541C914.3 541 868.7 541 823 541C777.3 541 731.7 541 686 541C640.3 541 594.7 541 548.8 541C503 541 457 541 411.2 541C365.3 541 319.7 541 274 541C228.3 541 182.7 541 137 541C91.3 541 45.7 541 22.8 541L0 541Z" fill="#d53867"></path><path d="M0 473L22.8 479.7C45.7 486.3 91.3 499.7 137 500.7C182.7 501.7 228.3 490.3 274 489.2C319.7 488 365.3 497 411.2 498.3C457 499.7 503 493.3 548.8 491C594.7 488.7 640.3 490.3 686 488C731.7 485.7 777.3 479.3 823 481.8C868.7 484.3 914.3 495.7 937.2 501.3L960 507L960 541L937.2 541C914.3 541 868.7 541 823 541C777.3 541 731.7 541 686 541C640.3 541 594.7 541 548.8 541C503 541 457 541 411.2 541C365.3 541 319.7 541 274 541C228.3 541 182.7 541 137 541C91.3 541 45.7 541 22.8 541L0 541Z" fill="#c62368"></path></svg>