<svg id="visual" viewBox="0 0 900 600" width="900" height="600" xmlns="http://www.w3.org/2000/svg" xmlns:xlink="http://www.w3.org/1999/xlink" version="1.1"><rect x="0" y="0" width="900" height="600" fill="#F7CACA"></rect><path d="M0 446L21.5 434C43 422 86 398 128.8 394.7C171.7 391.3 214.3 408.7 257.2 413.5C300 418.3 343 410.7 385.8 398.2C428.7 385.7 471.3 368.3 514.2 362.5C557 356.7 600 362.3 642.8 376.7C685.7 391 728.3 414 771.2 420.7C814 427.3 857 417.7 878.5 412.8L900 408L900 601L878.5 601C857 601 814 601 771.2 601C728.3 601 685.7 601 642.8 601C600 601 557 601 514.2 601C471.3 601 428.7 601 385.8 601C343 601 300 601 257.2 601C214.3 601 171.7 601 128.8 601C86 601 43 601 21.5 601L0 601Z" fill="#fa7268"></path><path d="M0 423L21.5 429.8C43 436.7 86 450.3 128.8 459.5C171.7 468.7 214.3 473.3 257.2 472C300 470.7 343 463.3 385.8 449.3C428.7 435.3 471.3 414.7 514.2 407.5C557 400.3 600 406.7 642.8 411.8C685.7 417 728.3 421 771.2 428.3C814 435.7 857 446.3 878.5 451.7L900 457L900 601L878.5 601C857 601 814 601 771.2 601C728.3 601 685.7 601 642.8 601C600 601 557 601 514.2 601C471.3 601 428.7 601 385.8 601C343 601 300 601 257.2 601C214.3 601 171.7 601 128.8 601C86 601 43 601 21.5 601L0 601Z" fill="#ef5f67"></path><path d="M0 491L21.5 487C43 483 86 475 128.8 474.3C171.7 473.7 214.3 480.3 257.2 479.2C300 478 343 469 385.8 472.3C428.7 475.7 471.3 491.3 514.2 499C557 506.7 600 506.3 642.8 502.7C685.7 499 728.3 492 771.2 481.7C814 471.3 857 457.7 878.5 450.8L900 444L900 601L878.5 601C857 601 814 601 771.2 601C728.3 601 685.7 601 642.8 601C600 601 557 601 514.2 601C471.3 601 428.7 601 385.8 601C343 601 300 601 257.2 601C214.3 601 171.7 601 128.8 601C86 601 43 601 21.5 601L0 601Z" fill="#e34c67"></path><path d="M0 490L21.5 491C43 492 86 494 128.8 496.8C171.7 499.7 214.3 503.3 257.2 501.8C300 500.3 343 493.7 385.8 498.5C428.7 503.3 471.3 519.7 514.2 520C557 520.3 600 504.7 642.8 496.2C685.7 487.7 728.3 486.3 771.2 485.3C814 484.3 857 483.7 878.5 483.3L900 483L900 601L878.5 601C857 601 814 601 771.2 601C728.3 601 685.7 601 642.8 601C600 601 557 601 514.2 601C471.3 601 428.7 601 385.8 601C343 601 300 601 257.2 601C214.3 601 171.7 601 128.8 601C86 601 43 601 21.5 601L0 601Z" fill="#d53867"></path><path d="M0 568L21.5 564.7C43 561.3 86 554.7 128.8 555C171.7 555.3 214.3 562.7 257.2 562.7C300 562.7 343 555.3 385.8 548.7C428.7 542 471.3 536 514.2 539.8C557 543.7 600 557.3 642.8 563.2C685.7 569 728.3 567 771.2 561.3C814 555.7 857 546.3 878.5 541.7L900 537L900 601L878.5 601C857 601 814 601 771.2 601C728.3 601 685.7 601 642.8 601C600 601 557 601 514.2 601C471.3 601 428.7 601 385.8 601C343 601 300 601 257.2 601C214.3 601 171.7 601 128.8 601C86 601 43 601 21.5 601L0 601Z" fill="#c62368"></path></svg>